HIERARCHY
ROOT Hips
{
	OFFSET 17.3776 98.0578 253.908
	CHANNELS 6 Xposition Yposition Zposition Zrotation Xrotation Yrotation
	JOINT Spine
	{
		OFFSET 0 11.1289 0
		CHANNELS 3 Zrotation Xrotation Yrotation
		JOINT Spine1
		{
			OFFSET 0 11.1289 0
			CHANNELS 3 Zrotation Xrotation Yrotation
			JOINT Spine2
			{
				OFFSET 0 11.1289 0
				CHANNELS 3 Zrotation Xrotation Yrotation
				JOINT Spine3
				{
					OFFSET 0 11.1289 0
					CHANNELS 3 Zrotation Xrotation Yrotation
					JOINT LeftShoulder
					{
						OFFSET 1.5 7.35679 0
						CHANNELS 3 Zrotation Xrotation Yrotation
						JOINT LeftArm
						{
							OFFSET 14.3451 0 0
							CHANNELS 3 Zrotation Xrotation Yrotation
							JOINT LeftForeArm
							{
								OFFSET 31.2638 0 0
								CHANNELS 3 Zrotation Xrotation Yrotation
								JOINT LeftHand
								{
									OFFSET 23.949 0 0
									CHANNELS 3 Zrotation Xrotation Yrotation
									End Site
									{
										OFFSET 10 0 0
									}
								}
							}
						}
					}
					JOINT RightShoulder
					{
						OFFSET -1.49999 7.35679 0
						CHANNELS 3 Zrotation Xrotation Yrotation
						JOINT RightArm
						{
							OFFSET -14.3451 0 0
							CHANNELS 3 Zrotation Xrotation Yrotation
							JOINT RightForeArm
							{
								OFFSET -31.2638 0 0
								CHANNELS 3 Zrotation Xrotation Yrotation
								JOINT RightHand
								{
									OFFSET -23.949 0 0
									CHANNELS 3 Zrotation Xrotation Yrotation
									End Site
									{
										OFFSET -10 0 0
									}
								}
							}
						}
					}
					JOINT Neck
					{
						OFFSET 0 11.1289 0
						CHANNELS 3 Zrotation Xrotation Yrotation
						JOINT Head
						{
							OFFSET 0 9.03419 0
							CHANNELS 3 Zrotation Xrotation Yrotation
							End Site
							{
								OFFSET 0 15 0
							}
						}
					}
				}
			}
		}
	}
	JOINT LeftUpLeg
	{
		OFFSET 14.9264 0 0
		CHANNELS 3 Zrotation Xrotation Yrotation
		JOINT LeftLeg
		{
			OFFSET 0 -46.3156 0
			CHANNELS 3 Zrotation Xrotation Yrotation
			JOINT LeftFoot
			{
				OFFSET 0 -37.7849 0
				CHANNELS 3 Zrotation Xrotation Yrotation
				JOINT LeftToeBase
				{
					OFFSET 0 -7.83404 13.569
					CHANNELS 3 Zrotation Xrotation Yrotation
					End Site
					{
						OFFSET 0 0 5
					}
				}
			}
		}
	}
	JOINT RightUpLeg
	{
		OFFSET -14.9264 0 0
		CHANNELS 3 Zrotation Xrotation Yrotation
		JOINT RightLeg
		{
			OFFSET 0 -46.3156 0
			CHANNELS 3 Zrotation Xrotation Yrotation
			JOINT RightFoot
			{
				OFFSET 0 -37.7849 0
				CHANNELS 3 Zrotation Xrotation Yrotation
				JOINT RightToeBase
				{
					OFFSET 0 -7.83404 13.569
					CHANNELS 3 Zrotation Xrotation Yrotation
					End Site
					{
						OFFSET 0 0 5
					}
				}
			}
		}
	}
}
MOTION
Frames: 8
Frame Time: 0.005
14.8188 95.0039 207.222 179.379 -176.089 -25.7949 178.857 172.143 175.892 178.857 172.143 175.892 178.857 172.143 175.892 178.857 172.143 175.892 9.33104 -26.3557 -2.80077 154.069 -167.593 138.672 178.676 -146.474 134.5 152.793 -151.296 148.96 0.531225 -18.8847 4.83749 6.33395 -6.56082 59.7209 170.571 -162.749 -100.328 169.327 -164.813 179.142 16.2162 -28.7955 39.932 177.83 177.153 177.705 7.62704 -24.327 12.151 176.678 143.148 -177.097 177.178 -165.743 -174.088 1.09996 0.59212 1.17871 0.1599 -24.978 15.6287 0.712353 35.3194 1.17876 5.56592 -11.8853 13.5885 1.12061 1.10976 1.14909
14.8099 95.0024 207.213 179.38 -176.055 -25.7597 178.862 172.152 175.896 178.862 172.152 175.896 178.862 172.152 175.896 178.862 172.152 175.896 9.33527 -26.3749 -2.80123 154.012 -167.547 138.635 178.8 -146.678 134.625 152.712 -151.209 148.798 0.501033 -18.921 4.83854 6.34239 -6.42673 59.7021 170.462 -162.748 -100.387 169.228 -164.548 179.064 16.1739 -28.7709 39.8736 177.823 177.15 177.7 7.6337 -24.3791 12.183 176.676 143.117 -177.096 177.279 -165.784 -174.105 1.10319 0.434943 1.17868 0.149388 -25.0095 15.5868 0.711932 35.3361 1.17901 5.64032 -11.9135 13.593 1.11772 1.25402 1.14915
14.7954 95.0031 207.202 179.39 -176.042 -25.7388 178.865 172.148 175.905 178.865 172.148 175.905 178.865 172.148 175.905 178.865 172.148 175.905 9.35415 -26.3645 -2.80098 154.035 -167.524 138.61 178.814 -146.765 134.668 152.817 -151.193 148.812 0.493677 -18.8569 4.83668 6.37735 -6.4581 59.7241 170.375 -162.758 -100.476 169.239 -164.59 179.171 16.1538 -28.7655 39.8607 177.825 177.138 177.7 7.62351 -24.3939 12.1641 176.676 143.112 -177.096 177.338 -165.793 -174.069 1.10166 0.509419 1.17869 0.170609 -24.9879 15.6436 0.712662 35.3072 1.17858 5.50815 -11.909 13.4825 1.12076 1.10224 1.14909
14.7867 95.0044 207.188 179.403 -176.036 -25.7163 178.865 172.145 175.909 178.865 172.145 175.909 178.865 172.145 175.909 178.865 172.145 175.909 9.3888 -26.3688 -2.80109 154.047 -167.535 138.62 178.786 -146.773 134.67 152.93 -151.296 148.943 0.562873 -18.8054 4.8352 6.38726 -6.51945 59.7978 170.741 -162.807 -100.417 169.163 -164.999 179.063 16.1261 -28.7548 39.8587 177.818 177.147 177.695 7.63394 -24.4059 12.1675 176.674 143.078 -177.095 177.234 -165.735 -174.129 1.10113 0.535044 1.1787 0.158958 -24.9682 15.6384 0.713298 35.2819 1.17822 5.60134 -11.9265 13.5222 1.11999 1.14091 1.1491
14.7704 95.0008 207.18 179.399 -175.997 -25.6821 178.872 172.157 175.911 178.872 172.157 175.911 178.872 172.157 175.911 178.872 172.157 175.911 9.39508 -26.3345 -2.80025 154.069 -167.541 138.616 178.918 -146.909 134.766 152.926 -151.231 148.924 0.509694 -18.8703 4.83707 6.5793 -6.43102 59.8011 170.48 -162.951 -100.531 169.167 -164.905 179.167 16.0597 -28.7073 39.8246 177.836 177.164 177.711 7.62832 -24.4489 12.1687 176.674 143.088 -177.095 177.308 -165.789 -174.138 1.10495 0.349474 1.17867 0.145169 -24.9913 15.6153 0.713502 35.2738 1.1781 5.60255 -11.9467 13.5225 1.12132 1.07436 1.14908
14.748 95.0044 207.167 179.378 -176.021 -25.6561 178.856 172.145 175.914 178.856 172.145 175.914 178.856 172.145 175.914 178.856 172.145 175.914 9.46741 -26.3337 -2.80023 154.188 -167.634 138.681 179.159 -147.012 134.913 152.997 -151.234 148.978 0.578523 -18.8121 4.83539 6.50711 -6.45816 59.8582 170.617 -162.926 -100.579 169.189 -164.93 179.168 16.079 -28.7069 39.8048 177.83 177.178 177.713 7.55765 -24.4331 12.104 176.675 143.101 -177.096 177.226 -165.71 -174.145 1.09829 0.673065 1.17873 0.0998904 -24.9979 15.6188 0.712168 35.3268 1.17887 5.63147 -11.9475 13.4864 1.12123 1.07889 1.14908
14.7378 95.0031 207.162 179.378 -175.991 -25.6389 178.852 172.152 175.924 178.852 172.152 175.924 178.852 172.152 175.924 178.852 172.152 175.924 9.53252 -26.3271 -2.80008 154.219 -167.705 138.695 179.19 -147.025 134.94 153.023 -151.274 149.002 0.611565 -18.7918 4.83481 6.47869 -6.38844 59.8638 170.448 -162.947 -100.727 169.152 -164.491 179.23 16.0814 -28.6759 39.7737 177.826 177.174 177.709 7.55963 -24.4754 12.0996 176.675 143.1 -177.096 177.339 -165.769 -174.158 1.10163 0.510738 1.17869 0.104526 -25.02 15.621 0.711962 35.3349 1.17899 5.63603 -11.975 13.4889 1.11683 1.29844 1.14917
14.723 95.002 207.156 179.386 -175.979 -25.5913 178.853 172.144 175.928 178.853 172.144 175.928 178.853 172.144 175.928 178.853 172.144 175.928 9.59966 -26.3512 -2.80066 154.234 -167.765 138.71 179.116 -146.951 134.872 153.537 -151.569 149.572 0.640146 -18.7169 4.83265 6.38551 -6.41499 59.8545 170.438 -162.878 -100.78 169.13 -164.511 179.303 16.0912 -28.689 39.7314 177.826 177.181 177.711 7.53802 -24.4911 12.0559 176.676 143.109 -177.096 177.366 -165.804 -174.137 1.10208 0.48912 1.17869 0.0953305 -25.0186 15.6057 0.712247 35.3236 1.17882 5.64821 -11.9383 13.4198 1.11871 1.20485 1.14913
